<?xml version="1.0" encoding="UTF-8"?>
<svg width="437px" height="349px" viewBox="0 0 437 349" version="1.1" xmlns="http://www.w3.org/2000/svg" xmlns:xlink="http://www.w3.org/1999/xlink">
    <!-- Generator: Sketch 58 (84663) - https://sketch.com -->
    <title>cartoonAsset 3</title>
    <desc>Created with Sketch.</desc>
    <g id="Page-1" stroke="none" stroke-width="1" fill="none" fill-rule="evenodd">
        <g id="Login" transform="translate(-731.000000, -321.000000)" fill-rule="nonzero">
            <g id="cartoonAsset-3" transform="translate(731.000000, 320.800000)">
                <path d="M323,314.513947 C323,321.478356 323,328.453038 323,335.417448 C323,341.385475 320.062131,344.2 313.919314,344.2 L218.091369,344.2 C211.895136,344.2 209.096148,341.447106 209.074782,335.42772 C209.074782,331.031308 209.074782,326.624624 209,322.228212 C209,319.454774 209,316.681337 209,313.907899 C209,312.531453 209,311.155006 209.053416,309.799103 C209.089026,297.602826 209.124637,285.403125 209.160247,273.2 C210.474276,274.607263 212.130166,274.864062 214.053135,274.864062 C248.239247,274.816127 282.389748,274.816127 316.504639,274.864062 C318.689108,274.998142 320.873865,274.606252 322.861119,273.723872 C322.861119,281.256665 322.861119,288.813426 322.861119,296.394155 L322.487208,296.815307 C321.418892,296.815307 320.350576,296.907755 319.346359,296.907755 C306.473152,296.907755 293.599944,296.907755 280.726736,296.907755 C275.850504,296.740649 271.714624,300.321042 271.377432,305.001361 C271.040241,309.681679 274.623186,313.77619 279.476806,314.257147 C280.615143,314.380065 281.761154,314.42469 282.906101,314.390683 L323,314.513947 Z" id="Path" fill="#233254"></path>
                <path d="M324.770203,315.2 L284.599942,315.074637 C283.452815,315.109223 282.304621,315.063838 281.164116,314.938828 C276.28092,314.4622 272.672858,310.279588 273.023537,305.501936 C273.374215,300.724284 277.556301,297.086379 282.45924,297.294022 C295.356966,297.294022 308.254692,297.294022 321.152418,297.294022 C322.222769,297.294022 323.293119,297.231341 324.299249,297.2 L324.556133,297.273128 L324.823721,297.273128 C327.167789,297.461172 329.565375,297.116425 331.813111,298.202902 C335.526138,299.981017 337.582969,303.944907 336.854463,307.918514 C336.212252,311.710737 332.57306,314.76123 328.184622,315.147766 C327.05005,315.158212 325.904775,315.158212 324.770203,315.2 Z M286.237578,310.143703 C287.428644,310.26072 288.615506,309.885699 289.51033,309.10959 C290.405154,308.33348 290.926206,307.227173 290.947121,306.058967 C291.081709,304.841004 290.691001,303.623301 289.868677,302.697823 C289.046354,301.772346 287.86657,301.222553 286.612201,301.180267 C284.164227,301.222897 282.109887,302.993394 281.763512,305.359025 C281.641865,306.593171 282.063456,307.819609 282.923123,308.732406 C283.782789,309.645204 284.999478,310.158299 286.269689,310.143703 L286.237578,310.143703 Z" id="Shape" fill="#F9D058"></path>
                <path d="M414.386167,243.170008 L417.107115,243.305171 C417.607769,244.344892 418.304332,244.022579 418.990011,243.554704 C419.864555,242.968624 420.858346,242.56479 421.906867,242.369423 C424.736652,241.797576 425.977404,242.650147 425.56382,245.280641 C425.155384,246.850111 425.924444,248.482729 427.424948,249.23158 C429.775847,250.645601 430.167663,252.465112 428.513327,254.606937 C427.533786,255.844205 427.196389,257.071075 428.317419,258.381124 C430.037058,260.408579 429.852033,262.446432 428.393606,264.515477 C427.372775,265.658475 427.179085,267.278524 427.903835,268.611977 C428.785422,270.369105 428.263,272.178219 425.999172,272.69808 C424.910793,272.947613 424.910793,273.457076 424.812839,274.205675 C424.408618,276.422363 424.975256,278.700355 426.380104,280.506383 C429.345979,283.898549 430.357168,288.475278 429.079284,292.723103 C427.22904,300.001149 429.242541,307.081648 430.885993,314.120558 C431.288694,315.836098 430.592131,316.01285 429.307844,316.2 L418.859405,316.2 C417.411861,316.2 417.052696,315.409812 417.030929,314.120558 C417.030929,311.677214 417.270372,309.213076 416.584693,306.842512 C416.584693,300.153642 416.584693,293.461305 416.584693,286.765503 C417.303023,286.162465 418.021353,285.549029 418.761451,284.966786 C423.114967,281.494118 423.060548,281.306968 418.086656,278.520517 L416.018736,281.390146 L414.571192,276.877758 C413.319556,276.877758 412.579458,278.083834 411.393125,277.563973 L410,272.365369 C413.569883,268.903099 414.843287,264.047602 417.934283,260.325402 C420.111041,261.042809 420.840255,260.179841 421.079698,258.183577 C421.34792,256.011388 421.795551,253.862865 422.418405,251.758102 C422.63608,251.0199 424.12716,250.604012 422.962594,249.553894 C422.070123,248.742912 421.297374,247.879943 419.784527,248.722117 C418.133504,249.544254 416.173459,249.575075 414.495005,248.805295 C412.851553,247.349686 411.66522,245.831693 413.64607,243.814635 L414.386167,243.170008 Z" id="Path" fill="#233254"></path>
                <path d="M297.828868,269.209224 L313.423884,269.209224 L317.426997,269.209224 C322.586089,269.209224 323.185486,269.744206 322.960712,274.153199 C320.969535,274.945168 318.780726,275.297052 316.592123,275.177045 C282.340888,275.146299 248.125331,275.146299 213.945452,275.177045 C212.01882,275.177045 210.370479,274.946449 209.043244,273.682784 C208.797063,269.891788 209.503495,269.209224 213.742085,269.2 L217.391983,269.2 L223.953235,269.2 L243.219555,269.2 L249.802214,269.2 L277.781192,269.2 C280.222,270.129126 283.004098,270.129126 285.444906,269.2 L297.828868,269.209224 Z" id="Path" fill="#2C676D"></path>
                <path d="M380.512079,262.24776 L380.564651,254.925873 L381.079863,253.545175 L381.963082,253.2 L389.133983,253.2 L393.918089,253.2 L395.684527,253.440576 C395.484752,259.601421 396.441573,265.762266 395.7371,271.93357 C394.637301,270.682022 393.033457,269.983989 391.363061,270.02988 C390.795277,270.02988 390.238007,268.785159 389.470448,269.36045 C388.702888,269.935741 389.743825,270.699309 389.628165,271.452418 C388.45054,272.142767 388.955236,273.282889 388.976265,274.224275 C389.10244,279.68431 389.344273,285.154806 389.480962,290.614841 C389.607136,295.499586 389.575593,295.499586 394.591018,295.468206 C394.591018,299.024551 394.591018,302.580896 394.591018,306.137241 L371.038499,306.2 C369.072284,305.687468 370.449686,304.515966 370.733578,303.856996 C374.140281,295.907519 376.264214,287.581488 378.156827,279.192698 C378.232963,278.641771 378.261106,278.08533 378.240943,277.529584 C379.127593,274.049438 379.690738,270.49557 379.923266,266.912848 L379.923266,265.793645 L380.123042,265.197434 C380.817,264.18283 380.533108,263.199605 380.512079,262.24776 Z M387.178283,286.640103 L387.304457,286.640103 C387.304457,285.060667 387.24137,283.502151 387.304457,281.901796 C387.367544,280.301441 387.304457,279.088099 385.033321,279.109019 C382.762186,279.129939 382.068227,279.872587 382.152344,282.048234 C382.289032,285.573199 382.152344,289.108624 382.152344,292.64405 C382.152344,293.826011 381.616103,295.269469 383.813637,295.415907 C386.011171,295.562345 386.967993,294.788317 387.094167,292.780028 C387.220341,290.771739 387.178283,288.679771 387.178283,286.640103 Z" id="Shape" fill="#D9EAEA"></path>
                <path d="M22.8574514,257.482188 L13.39309,289.796078 C12.3260819,295.838682 8.05804974,301.184462 9.18907827,307.736683 L18.9201917,311.2 C27.3815655,304.574977 28.7580059,293.363398 35.9923204,285.947948 C40.0923019,276.058065 45.0915907,266.545445 50.9304331,257.523789 L51.9227505,255.651726 C59.2637659,239.291974 65.6978244,222.599411 71.3849773,205.626038 L85,145.376806 L38.2970578,145.2 C37.5181419,163.775027 36.3977835,182.339653 36.0456708,200.92508 C35.7148983,220.768949 30.5825896,239.385577 22.8574514,257.482188 Z" id="Path" fill="#184060"></path>
                <path d="M338.005911,338.112563 C337.905521,333.824426 339.110207,329.689437 339.61216,325.472769 C340.836924,315.068933 341.61997,304.675306 340.686339,294.2 L351.859804,294.281679 C352.582616,301.734869 350.283673,308.932813 350.113009,316.314534 C349.109104,316.202226 349.279768,316.998594 349.109104,317.570346 C347.502855,323.818774 345.645631,329.985523 343.487234,336.070593 C343.065594,337.265145 342.633915,338.28613 341.148135,338.194242 L338.005911,338.112563 Z" id="Path" fill="#3F878D"></path>
                <path d="M84.5756458,145.70892 L71,205.875709 C73.1278442,207.298607 72.8618637,209.542009 73.1278442,211.608847 C83.0116804,234.2402 84.8948225,257.858236 82.1499035,282.047507 L82.4903585,288.081843 C82.3733271,295.352126 82.1924604,302.549707 82.1605427,309.788832 C82.1605427,311.762195 80.9157539,314.358724 84.2139123,315.2 L94.267976,315.2 C98.8002841,311.481769 97.1405657,305.977126 98.4279114,301.324145 L100.204661,290.252542 C100.470642,286.48238 100.651509,282.701833 101.023881,278.942058 C103.343231,256.040665 108.215995,233.388539 107.992571,210.237879 C106.439245,198.813148 103.449624,187.544208 103.875192,175.890982 L103.960306,176.026002 C101.58776,175.600171 102.470815,173.824145 102.428258,172.442791 L88.6930243,145.2 L84.5756458,145.70892 Z" id="Path" fill="#233254"></path>
                <path d="M345.94589,264.443747 L347.874193,264.2 C349.20831,266.255956 350.946025,265.906231 352.78464,264.920644 C355.258144,265.633947 356.961565,267.775207 357,270.2195 L356.843045,284.674777 L356.68609,289.2 C355.060486,288.765494 353.401248,288.447563 351.831699,287.875286 C349.028933,286.815515 346.091634,285.660365 345.306859,282.576431 C344.611773,279.852819 342.941325,279.216956 340.340357,279.471301 C339.246166,279.525688 338.149707,279.525688 337.055515,279.471301 C336.562229,271.650191 339.342573,266.944807 345.94589,264.443747 Z" id="Path" fill="#EEA937"></path>
                <path d="M348.26774,316.172499 C348.449803,308.844955 350.902299,301.699838 350.131209,294.301349 L355.218265,294.2 C357.681471,301.426196 357.103153,308.804415 356.353481,316.162364 C355.626046,322.785705 354.459977,329.359301 352.862155,335.844372 C352.690801,336.553817 352.797897,337.536903 351.726938,337.871356 C350.740331,338.136803 349.959556,338.241448 349.384615,338.185291 C349.131348,338.160553 348.66981,337.934565 348,337.507326 L348,334.466024 C348.995992,328.608042 348.51406,322.72979 348.342707,316.851539 L348.26774,316.172499 Z" id="Path" fill="#2C676D"></path>
                <path d="M370.490501,305.262531 L394.481089,305.2 L410,305.325062 L410,306.992556 C408.072185,319.498759 406.14794,332.004963 404.227265,344.511166 C404.088034,345.3866 404.323656,346.387097 403.091996,347.189578 C402.905308,345.911353 402.96707,344.610376 403.274067,343.354342 C404.93413,332.32804 406.487092,321.280893 408.307807,310.275434 C408.629109,308.305707 408.093605,307.961787 406.23005,308.003474 C401.656845,308.118114 397.083639,308.003474 392.306941,308.003474 L397.876185,345.032258 C396.034051,344.490323 396.494584,343.062531 396.355353,342.187097 C394.67744,331.53598 393.085208,320.870968 391.578656,310.19206 C391.332324,308.409926 390.668299,307.888834 388.869005,307.961787 C385.334677,308.09727 381.789639,308.086849 378.255311,307.961787 C376.402467,307.899256 375.695601,308.326551 375.417139,310.3067 C373.810627,321.77072 371.989912,333.286849 370.212039,344.771712 C370.258021,345.718905 369.821312,346.627297 369.044639,347.2 C368.798307,344.146402 369.633694,341.436725 370.029967,338.706203 C371.411568,329.232754 372.889559,319.769727 374.314001,310.3067 C374.506782,309.014392 374.935186,307.742928 372.621807,307.930521 C370.993875,308.066005 370.683282,306.523573 370.490501,305.262531 Z" id="Path" fill="#184060"></path>
                <path d="M418.421342,316.2 L428.982398,316.2 C430.583498,319.376483 431.46051,322.835158 431.556656,326.352105 C431.919692,331.547655 433.756876,336.473037 435,341.51272 C433.657866,343.009039 432.920792,345.201561 430.291529,345.263907 C432.70077,342.801217 432.79978,340.307353 431.237624,337.231587 C428.872387,332.597156 427.024202,327.734121 424.933993,322.923042 C423.921892,323.297121 424.691969,324.086845 424.372937,324.554445 C423.624862,325.157128 423.811881,326.029981 423.668867,326.798922 C422.007701,330.498154 422.018702,334.498727 421.468647,338.374608 C421.226623,339.922882 421.105611,341.491938 420.929593,343.040212 C419.30143,344.640441 418.0033,346.843355 415,346.022458 C418.993399,344.204015 419.40044,340.826908 419.0044,337.293933 C418.146315,330.26955 418.608361,323.224384 418.421342,316.2 Z" id="Path" fill="#EBB895"></path>
                <path d="M357,285.070968 C357.487407,279.864298 357.487407,276.2 357.238731,270.736057 C358.06397,272.950506 359.249954,275.421322 360.136322,277.615267 C360.472531,278.435433 360.91062,279.450389 361.94981,279.450389 C362.989,279.450389 363.350882,278.409561 363.508595,277.471738 C364.259521,273.006452 364.61553,270.845303 364.936732,267.574582 L365.525308,265.909677 L368.806425,265.2 L368.877742,265.2 L369,266.378989 L368.806425,276.69258 C368.317395,278.794256 367.981186,280.957445 367.298581,282.997608 C365.841678,287.323985 363.029753,288.287681 359.097132,285.991215 L357,285.070968 Z" id="Path" fill="#F9D058"></path>
                <path d="M337.069937,279.250678 C338.170762,279.304264 339.273869,279.304264 340.374695,279.250678 C342.980153,279.000077 344.66073,279.626579 345.37131,282.310093 C346.160843,285.338184 349.115951,286.48677 351.935711,287.530939 C353.503498,288.105232 355.184075,288.408041 356.819535,288.836151 L357,288.783942 C357,289.716733 357,290.649524 357,291.582315 L356.819535,292.198375 C350.052111,292.261025 343.927593,290.517263 338.930978,286.048219 C338.20912,283.782372 336.652612,281.7358 337.069937,279.250678 Z" id="Path" fill="#F9D058"></path>
                <path d="M368,276.513338 L368.20311,266.2 L379,267.778781 C378.763591,271.290255 378.191049,274.773449 377.289602,278.184385 C374.101447,278.304223 370.926155,277.73304 368,276.513338 Z" id="Path" fill="#3F878D"></path>
                <path d="M340,286.2 C345.027743,290.673868 351.145019,292.419512 358,292.356794 L358,295.09547 L352.609079,295.2 L340.022699,295.105923 L340,286.2 Z" id="Path" fill="#EEA937"></path>
                <path d="M409,306.2 L409,304.547107 C412.711816,299.443802 414.279539,293.679339 415.420749,287.790909 C415.801153,287.150413 416.054755,286.396281 417,286.2 C417,292.846006 417,299.495455 417,306.148347 L409,306.2 Z" id="Path" fill="#2C676D"></path>
                <path d="M340.393689,341.2 C342.263586,342.24809 344.352682,342.98601 346.549413,343.374352 C347.256713,343.523664 348.196097,343.859616 347.964014,344.690162 C347.731931,345.520709 346.858857,345.072774 346.217866,345.128766 C343.256045,345.408725 340.32738,344.764818 337.310301,344.886134 C335.099987,344.979454 336.205144,342.581134 336.890342,341.209332 C337.983552,341.711054 339.304249,341.707536 340.393689,341.2 L340.393689,341.2 Z" id="Path" fill="#184060"></path>
                <path d="M352.393918,341.2 C354.257693,342.247354 356.34302,342.982742 358.536275,343.366093 C359.253067,343.514838 360.179383,343.821623 359.96986,344.667608 C359.760336,345.513593 358.867102,345.085952 358.238531,345.132435 C355.283142,345.374145 352.33878,344.825649 349.350308,344.900022 C347.045545,344.955801 348.247551,342.603777 348.909205,341.237186 C350.045045,341.571861 351.213968,341.869351 352.393918,341.2 Z" id="Path" fill="#184060"></path>
                <path d="M7.01430659,316.2 C2.75893167,317.335015 -0.272887615,320.456306 0.0194663875,323.841782 C0.268508686,326.679319 6.24552384,327.481658 7.59901459,328.988488 C16.0123131,338.234946 26.5045734,336.092116 39,335.730086 C30.1211007,329.859318 19.1307558,329.174396 16.1422482,319.634399 C12.6448281,319.575691 9.1040963,319.46806 7.01430659,316.2 Z" id="Path" fill="#233254"></path>
                <path d="M83.5357254,324.2 C79.098701,334.94231 79.8009638,335.033518 91.1754941,335.34768 C100.368753,335.5605 109.508811,337.283323 119,335.124727 C110.849495,331.27371 101.656235,329.783974 94.4420805,324.331745 C90.8789938,325.35768 87.0703471,325.311673 83.5357254,324.2 Z" id="Path" fill="#233254"></path>
                <path d="M425,327.433713 C425.128686,326.658118 425,325.799793 425.686327,325.2 L429,345.013857 L427.927614,345.2 L425,327.433713 Z" id="Path" fill="#184060"></path>
                <path d="M431.620744,346.688455 C433.99989,346.620812 434.656892,344.591517 435.881306,343.2 C437.693041,344.359597 436.747355,346.021687 436.797128,347.935022 C435.80167,346.070003 434.995348,346.311586 434.198981,347.664449 C433.688018,348.709354 432.51037,349.28294 431.342016,349.055966 C430.545649,348.92068 429.291371,349.693744 429.032552,348.621117 C428.773733,347.54849 430.117602,347.297243 430.963741,346.930038 C431.272333,347.045997 431.580926,347.132967 431.630699,346.649802 L431.620744,346.688455 Z" id="Path" fill="#2C676D"></path>
                <path d="M417.268777,347.13456 C420.205705,347.942331 421.475146,345.774642 423.067327,344.2 C425.003763,345.692843 423.336276,347.267485 423.26097,349.2 C422.550944,347.339059 421.873191,347.461759 420.582234,348.474029 C419.291277,349.486299 417.279535,348.913701 415.612049,348.883027 C414.719137,348.883027 414.923538,348.157055 415.461437,347.860532 C416.034599,347.557346 416.640566,347.313941 417.268777,347.13456 Z" id="Path" fill="#2C676D"></path>
                <path d="M356,292.154456 C356,291.320755 356,290.487055 356,289.653354 C357.766067,289.205396 359.51952,288.720108 361.310817,288.318812 C362.799359,287.992175 363.291335,288.318812 362.837204,289.550697 C361.828022,292.35977 358.96447,292.275778 356,292.154456 Z" id="Path" fill="#473D37"></path>
                <path d="M349,341.686396 C349,340.646995 349,339.611592 349,338.580186 L352.647047,338.2 C352.210922,339.146062 352.828359,340.666921 353,341.686396 C351.734177,342.549898 350.329114,342.166119 349,341.686396 Z" id="Path" fill="#EBB895"></path>
                <path d="M341,341.603948 C339.760911,342.398684 338.261396,342.398684 337.022307,341.603948 C337.022307,340.349808 336.972116,339.444342 337.022307,338.2 C337.943464,338.441639 338.602695,338.568368 339,338.580186 C339.48105,338.594496 340.147717,338.594496 341,338.580186 L341,341.603948 Z" id="Path" fill="#EBB895"></path>
                <path d="M349.534919,318.2 C349.694919,324.206904 350.144919,330.213809 349.214919,336.2 L349.534919,318.2 Z" id="Path" fill="#3F878D"></path>
                <path d="M7,314.876366 C9.19084193,318.658162 12.0278972,318.132064 15.7320011,318.2 L20,309.970473 L9.70078432,306.2 L7,314.876366 Z" id="Path" fill="#9A7B2D"></path>
                <path d="M83,324.344185 C86.5670964,325.456459 90.4047635,325.485215 93.9895094,324.426528 C94.0824289,321.585683 93.5247937,318.033983 93.6248608,315.2 L84.4098736,315.2 L83,324.344185 Z" id="Path" fill="#9A7B2D"></path>
                <path d="M430.835,345.51169 C430.785,346.00169 430.475,345.91169 430.165,345.80169 L430.835,345.51169 Z" id="Path" fill="#EBB895"></path>
                <path d="M323.738836,296.94 L323.488836,296.94 L323.248836,296.87 L323.608836,296.46 C323.727648,296.58934 323.776138,296.76838 323.738836,296.94 L323.738836,296.94 Z" id="Path" fill="#2C676D"></path>
                <path d="M253,159.467181 L250.958879,160.2 C250.136761,155.853282 249.087852,151.496525 251.440811,147.2 L252.461371,148.474903 C252.248754,152.149035 251.525857,155.843243 253,159.467181 Z" id="Path" fill="#EAF4F4"></path>
                <path d="M332.225,190.710759 C332.385,190.550759 332.525,190.230759 332.775,190.600759 C332.775,190.600759 332.595,190.840759 332.495,190.970759 L332.225,190.710759 Z" id="Path" fill="#EAF4F4"></path>
                <path d="M251.743497,160.2 C250.519901,156.232877 251.143935,152.210959 251.278531,148.2 C253.346409,150.79726 255.353108,153.438356 257.494402,155.980822 C258.497752,157.175342 257.885953,157.624658 256.723536,158.084932 C255.059445,158.775342 253.407589,159.49863 251.743497,160.2 Z" id="Path" fill="#79BEC4"></path>
                <path d="M365,266.709502 C364.676922,270.239013 363.968328,273.714889 362.888984,277.06471 C362.60205,277.960834 362.46883,279.188855 361.321093,279.2 C360.173357,279.210982 359.824936,278.093593 359.497012,277.219596 C358.595218,274.852059 357.806149,272.440269 356.976089,270.050605 C356.940958,267.498938 355.383919,265.263614 353.122973,264.518977 C352.497866,262.21782 354.403929,262.073997 355.510675,261.2 C358.359018,263.608259 361.568579,265.471731 365,266.709502 L365,266.709502 Z" id="Path" fill="#FFFFFF"></path>
                <path d="M392.560287,250.734362 L395.010004,250.734362 L414.828534,250.901669 C415.110723,251.859321 415.042532,252.905693 414.639286,253.805634 L400.971334,253.805634 C400.54506,253.510911 400.009785,253.510911 399.583511,253.805634 L395.956247,253.805634 C395.314056,253.478942 394.579787,253.478942 393.937596,253.805634 L389.153813,253.805634 C386.774344,253.386893 384.35235,253.386893 381.972881,253.805634 L381.089721,254.2 L379.418026,253.94904 C378.513838,251.057025 379.07107,249.814175 381.14229,250.304145 C384.916748,251.236282 388.743774,250.67461 392.560287,250.734362 Z" id="Path" fill="#233254"></path>
                <path d="M356.99442,255.660385 C355.752963,255.660385 354.374946,256.212848 353.394195,255.750321 C353.493512,257.035118 352.736223,258.718201 352.252055,258.718201 C350.737477,258.718201 350.886452,257.356317 349.769141,258.718201 C348.118003,260.671092 350.203651,260.6197 348.912536,262.2 C345.995112,255.133619 347.224155,256.007281 346.044771,253.206424 C345.212994,251.227837 356.224717,250.521199 358,250.2" id="Path" fill="#233254"></path>
                <path d="M415,254.254984 C415.40025,253.485836 415.467934,252.591538 415.187842,251.773066 L415.448735,250.629137 C417.061326,251.387125 418.944631,251.356846 420.530914,250.547427 C421.981475,249.709907 422.722409,250.547427 423.578135,251.36452 C424.694754,252.385885 423.265064,252.814859 423.056351,253.529815 C422.459141,255.59742 422.02994,257.708013 421.772761,259.841854 C421.543176,261.802876 420.791806,262.660823 418.746412,261.956081 C418.349856,260.812151 419.372553,258.820488 417.974171,258.54472 C415.250456,257.993182 415.584398,255.930024 415,254.254984 Z" id="Path" fill="#EBB895"></path>
                <path d="M347.981215,262.433894 C349.106759,260.91854 345.910215,260.327183 347.407188,258.454551 C348.735329,256.791358 351.515422,260.561262 352.044427,256.28624 C352.933607,256.729758 354.216726,256.28624 355.308504,256.2 C356.434047,258.66399 356.040107,261.12798 355.162183,263.591969 C353.946596,264.515965 351.853085,264.663805 352.539666,267.287954 C350.693775,268.433709 348.949183,268.840268 347.609786,266.450197 L347.981215,262.433894 Z" id="Path" fill="#473D37"></path>
                <path d="M368.166099,266.2 L365.335083,266.2 C364.438235,263.867638 363.433332,261.022157 364.384208,259.202915 C365.335083,257.383673 365.054143,255.832653 365.464748,254.2 C368.241737,257.733528 370.186709,261.453644 368.166099,266.2 Z" id="Path" fill="#473D37"></path>
                <path d="M378.989268,267.2 L368.12878,264.903704 L368,263.2 C371.519005,264.978372 375.255232,265.793549 379,265.6 L378.989268,267.2 Z" id="Path" fill="#ABD2D6"></path>
                <path d="M379.688635,262.2 C379.688635,263.548148 379.978635,264.955556 379.368635,266.2 C379.123606,264.855369 379.238234,263.422525 379.688635,262.2 L379.688635,262.2 Z" id="Path" fill="#ABD2D6"></path>
                <path d="M273.271808,180.532731 C273.587142,180.710594 273.861787,180.919843 274.197465,180.532731 C273.973679,181.976553 275.123121,182.625227 275.845336,183.493613 C276.425143,186.05692 276.172998,188.635206 278.034483,190.623077 L283.51506,194.646614 C284.202007,195.373144 284.824943,196.160917 285.376545,197.000671 C286.983728,199.95109 285.376545,202.775959 281.785812,203.623419 C280.280349,203.696657 279.090219,204.59643 277.788197,205.224178 C273.434561,207.316674 269.986237,206.029789 268.134924,201.499536 C267.402537,199.720915 266.802386,197.900444 266.100515,196.090436 C265.846213,191.602033 264.269546,187.186867 265.408815,182.614764 C265.453884,182.520619 265.464709,182.412993 265.439331,182.311353 C267.819591,178.743648 269.396258,178.377461 273.271808,180.532731 Z" id="Path" fill="#233254"></path>
                <path d="M266.224543,195.2 C266.93168,197.016673 267.573542,198.865032 268.400348,200.660581 C270.380331,205.223387 274.06832,206.554206 278.724543,204.420671 C280.117058,203.786948 281.379025,202.878612 283,202.804677 L282.456049,219.703961 C278.86597,221.816371 274.840731,222.566277 270.826371,223.2 C269.433856,222.883138 267.660574,223.675292 266.779373,221.879743 C266.289817,216.947265 268.063098,212.057035 267.073107,206.849943 C264.440383,208.444813 263.700609,211.46556 261.339861,212.997058 L258,211.729611 C258.772411,208.191324 261.133159,205.160015 261.535683,201.505545 C263.646214,199.805055 264.201044,196.974425 266.224543,195.2 Z" id="Path" fill="#D9EAEA"></path>
                <path d="M271.065258,223.616434 C274.805319,222.997141 278.49511,222.223024 281.812905,220.2 C283.859614,224.470788 284.948631,229.157949 285,233.917344 C283.994607,237.01381 284.778814,240.223813 284.185632,243.371887 C283.009323,249.564819 282.245224,255.871288 281.269993,262.126149 C281.139292,262.982838 281.189562,264.076922 279.932821,264.190459 C278.364409,264.32464 278.605703,263.013802 278.44484,262.126149 C277.220879,256.273048 277.040342,250.240671 277.911982,244.32147 C278.662052,240.657389 277.259086,236.881109 274.32273,234.660496 C272.693994,231.140846 270.602778,227.817306 271.065258,223.616434 Z" id="Path" fill="#184060"></path>
                <path d="M282.717257,194.2 L278,190.296886 L286.412943,185.2 C287.845146,185.988927 289.417565,186.020069 291,186.37301 C288.596302,189.393772 286.192604,192.414533 282.717257,194.2 Z" id="Path" fill="#CDE4EB"></path>
                <path d="M292.259023,186.2 C290.624204,185.833463 288.915074,185.812518 287.397028,185.016609 L288.77707,183.372428 C290.33758,182.733607 289.690021,181.686358 289.276008,180.691471 C289.304939,179.944431 289.251548,179.196499 289.116773,178.460831 C288.055202,174.774516 289.116773,169.978116 284,168.271101 C285.815287,167.946454 287.407643,168.81567 289.084926,169.224097 L293.235669,180.544857 L294,183.896053 C293.728958,184.850245 293.108574,185.671241 292.259023,186.2 L292.259023,186.2 Z" id="Path" fill="#EBB895"></path>
                <path d="M285.362423,310.174439 C284.140119,310.179285 282.972317,309.664111 282.145385,308.755249 C281.318453,307.846387 280.908871,306.627894 281.017075,305.398568 C281.353485,303.021722 283.348721,301.242832 285.726268,301.2 C286.945864,301.23179 288.097264,301.774941 288.903988,302.699026 C289.710711,303.623112 290.099883,304.844658 289.978055,306.070339 C289.958837,307.25221 289.447103,308.371151 288.568538,309.152349 C287.689973,309.933546 286.525974,310.304622 285.362423,310.174439 Z" id="Path" fill="#EEA937"></path>
                <path d="M414.178466,254.209932 C414.762311,255.848719 414.422619,257.84506 417.214462,258.38139 C418.636922,258.649556 417.586,260.586304 418,261.698693 C414.985234,265.274229 413.753851,269.892629 410.272008,273.2 C410.17299,273.112238 410.046475,273.056535 409.911085,273.041087 C409.911314,271.196065 410.021176,269.352481 410.240162,267.518871 C410.579854,265.532462 409.964162,264.688238 407.777395,264.966336 C407.121725,265.041973 406.458607,265.041973 405.802936,264.966336 C404.115091,264.787559 403.425092,265.363617 403.52063,267.022269 C403.626784,268.859697 403.52063,270.716989 403.425092,272.564349 L403.064169,272.981495 C400.364103,273.043154 397.670419,272.70801 395.081408,271.988291 C395.792638,266.138317 394.826639,260.288343 395.028332,254.428437 C395.157604,254.412796 395.2609,254.320176 395.283101,254.2 L398.934789,254.2 C399.373024,254.417189 399.897784,254.417189 400.336018,254.2 L414.178466,254.209932 Z" id="Path" fill="#CDE4EB"></path>
                <path d="M411.291768,273.30049 C411.426256,273.317609 411.551927,273.379339 411.650286,273.476595 L413,278.979869 L410.964884,279.2 C408.982491,278.550614 407.116089,277.515998 404.996615,277.394926 L403.39383,276.833592 L401.116187,276.129173 C399.40699,275.119269 397.490256,274.553035 395.527525,274.478191 C393.418597,274.236047 391.425659,273.894844 390.434462,271.572462 C390.550454,270.824016 389.527623,270.009532 390.276293,269.371152 C391.024963,268.732772 391.594373,270.086578 392.174329,270.075571 C393.84951,270.027282 395.45795,270.7618 396.5609,272.078763 C399.132697,272.876167 401.808406,273.247566 404.490473,273.179418 C404.641071,273.228566 404.796902,273.25814 404.954437,273.26747 C407.063366,273.993902 409.172294,274.54423 411.291768,273.30049 Z" id="Path" fill="#EBB895"></path>
                <path d="M418.095977,287.620812 C417.263947,287.832391 417.081306,288.594072 416.705878,289.249964 C414.676536,290.149172 412.921155,291.281115 412.545726,293.894106 C412.248262,295.42007 411.134316,296.630886 409.684354,297.004306 C407.93912,297.63904 408.314548,296.612886 408.781297,295.59731 C409.493248,295.03958 409.925736,294.176631 409.958315,293.248792 C410.023388,293.226676 410.084942,293.194588 410.140956,293.153582 C410.140956,293.153582 410.140956,293.058372 410.140956,293.005478 L409.917728,293.238214 C409.339366,293.047793 408.568216,293.513265 408,292.677531 C409.014671,291.91585 410.19169,291.556167 410.820786,290.487697 C413.925679,288.498862 415.528859,285.198242 417.527761,282.20441 L419.435343,279.2 C424.07239,282.035148 424.082536,282.225568 420.064439,285.758924 C419.435343,286.38308 418.76566,287.007236 418.095977,287.620812 Z" id="Path" fill="#EBB895"></path>
                <path d="M416,282.479416 C413.881997,285.240289 412.240545,288.336411 409,290.2 C409.15532,286.485969 409.31064,282.76865 409.465961,279.048045 L411.509834,278.85084 C412.653555,279.343853 413.373676,278.190203 414.602118,278.2 L416,282.479416 Z" id="Path" fill="#CDE4EB"></path>
                <path d="M218.572422,269.2 C214.860662,266.813349 212.35607,263.749716 213.145806,258.873146 C213.618324,254.98535 216.597302,251.903835 220.41138,251.357491 C224.357184,250.602085 228.313867,252.616231 230.084178,256.281422 C231.854489,259.946613 231.00364,264.362677 228.00413,267.077258 C227.203111,267.823086 226.334402,268.488595 225.488256,269.188526 L218.572422,269.2 Z" id="Path" fill="#3F878D"></path>
                <path d="M250.822112,252.603361 C257.835897,257.41267 257.724212,262.770136 250.487058,268.2 L243.618463,268.2 C238.782526,265.01448 237.196606,262.056496 238.369293,258.20905 C239.39679,254.837363 241.719827,252.665417 245.572942,252.2 C246.176038,253.854816 246.689786,255.530317 247.415735,257.154105 C247.728452,257.867744 247.806631,259.222624 249.359045,258.457272 C249.944943,258.256036 250.372217,257.78285 250.482386,257.213224 C250.592555,256.643599 250.369186,256.062496 249.895131,255.685456 C248.577254,254.806335 249.079834,253.875501 249.03516,252.903297 L250.822112,252.603361 Z" id="Path" fill="#3F878D"></path>
                <path d="M279,269.056804 C279,268.790842 279,268.509236 279.055866,268.243274 C279.055866,266.428476 280.452514,265.990422 280.865922,266.584924 C282.631285,269.166318 286.083799,262.845815 287,268.97858 C284.459954,270.579453 281.555765,270.60785 279,269.056804 Z" id="Path" fill="#233254"></path>
                <path d="M406.865902,296.557702 C406.394816,297.602089 406.007478,298.573368 407.797607,297.946736 C409.286118,297.559224 410.418557,296.352245 410.707876,294.844909 C411.084746,292.25483 412.874875,291.137337 415,290.260052 C413.953141,296.213055 412.550349,302.040731 409.168993,307.2 L394,307.074674 C394,303.52376 394,299.972846 394,296.421932 L394.115155,275.2 C396.063729,275.271018 397.96664,275.808305 399.663509,276.76658 C396.774177,276.327937 396.062313,277.643864 396.198405,280.390601 C396.439182,284.944125 396.334497,289.528982 396.198405,294.09295 C396.198405,295.93107 396.742772,296.557702 398.585244,296.484595 C400.260219,296.432376 401.359422,296.401044 401.36989,294.166057 C401.36989,288.589034 401.694417,283.001567 401.89332,277.455875 L403.484546,277.988512 C403.484546,282.980679 403.641575,287.98329 403.411266,292.975457 C403.37986,295.680418 403.997507,296.985901 406.865902,296.557702 Z" id="Path" fill="#CDE4EB"></path>
                <path d="M394,274.959582 L393.861542,296.2 C387.857496,296.2 387.895257,296.2 387.744212,291.349826 C387.567992,285.89338 387.291076,280.426481 387.140031,274.970035 C387.140031,274.039721 386.510676,272.879443 387.920431,272.2 C389.103618,274.405575 391.520341,274.74007 394,274.959582 Z" id="Path" fill="#3F878D"></path>
                <path d="M387.734104,286.515622 C387.734104,288.822228 387.818855,291.025036 387.734104,293.273976 C387.649354,295.522916 386.402309,296.341761 383.956649,296.180299 C381.510988,296.018837 382.055814,294.427279 382.043706,293.124047 C382.043706,289.225884 382.164779,285.32772 382.043706,281.44109 C381.946849,279.04222 382.806462,278.223375 385.361087,278.200309 C387.915713,278.177243 388.085214,279.445876 387.976249,281.279628 C387.867284,283.113379 387.976249,284.739536 387.976249,286.504089 L387.734104,286.515622 Z" id="Path" fill="#79BEC4"></path>
                <path d="M382,252.831399 C384.319516,252.481002 386.680484,252.481002 389,252.831399 L382,252.831399 Z" id="Path" fill="#EBB895"></path>
                <path d="M396,252.687039 C395.967323,252.808037 395.815278,252.901291 395.625,252.917039 L393,252.687039 C393.954809,252.414935 395.045191,252.414935 396,252.687039 L396,252.687039 Z" id="Path" fill="#EBB895"></path>
                <path d="M69.2928792,41.2 C64.1486824,41.7293594 63.5675388,46.2341044 61.5550602,49.5036773 C55.8297198,59.7483393 51.4926669,70.5431198 47.1018044,81.4001779 C44.4866583,87.9081851 44.6911347,96.5751483 36.3398864,100.208007 C31.669214,115.704745 40.9137015,130.620225 38.3523651,146.023547 L85.45728,146.2 L89.6221422,145.6914 L87.7495685,136.630012 C75.3195532,136.308244 63.0509668,135.13535 51.5249526,130.142764 C59.1336286,130.630605 66.7961142,131.27414 74.0604088,133.256643 C81.8197517,135.332562 89.5575707,133.900178 97.252342,134.62675 C107.852831,134.388019 118.550178,135.89306 129,133.007533 L128.580285,126.447628 C116.031889,124.517023 103.461969,122.690214 91.3010014,118.92242 C85.7263279,119.098873 85.5003276,115.590569 85.4142323,111.46987 C85.1667082,99.7201661 89.0732844,88.7800712 91.6669066,77.590866 C91.4511899,77.3489333 91.2094899,77.129737 90.9458581,76.9369514 C85.0913747,68.3322657 87.5128063,58.1498814 85.2850893,48.8497628 C79.533504,47.2166135 74.1215727,44.6278537 69.2928792,41.2 Z M45.6166597,127.558244 L46.3054224,127.319514 L46.4130416,128.284816 C46.1674608,128.27368 45.9263602,128.217308 45.702755,128.118743 C45.6381835,128.046085 45.6812312,127.755457 45.6704693,127.558244 L45.6166597,127.558244 Z" id="Shape" fill="#ABD2D6"></path>
                <path d="M91.190231,77.0572382 C88.615075,88.292419 84.8055466,99.277466 85.0077282,111.033759 C85.0928574,115.202657 85.3269625,118.69411 90.8284322,118.516931 C90.9986905,110.89827 89.9239353,103.00863 91.5413887,95.7026357 C103.161514,43.195362 153.0259,7.62423755 207.231871,17.7859271 C259.862953,27.6453715 296.564248,73.1384738 288.508904,129.616623 C280.63446,184.854525 224.257696,221.801386 168.7003,210.336916 C131.190279,202.593187 98.9263403,171.076316 92.8821724,136.266016 L87.3274969,136.266016 L89.22162,145.416748 L102.980615,172.691764 C104.320689,173.361806 104.96901,174.883124 104.512939,176.287439 L104.42781,176.15195 C118.027188,189.492425 131.988365,202.416009 149.822917,210.336916 C176.500256,219.414692 203.156314,219.59187 229.801731,210.243116 C251.021958,200.549847 268.932175,185.060086 281.37934,165.635904 L283.071281,162.446697 L287.976847,151.148983 L289.977382,145.718993 L292.967542,135.661526 L293.520881,130.335758 L295,119.121422 C295,117.731789 295,116.321312 295,114.88999 C293.3187,57.7760837 253.382498,22.6218491 213.403733,13.794207 C165.007824,3.18436089 117.261026,25.7693673 95.3189936,69.6365993 C94.0526979,72.169205 92.5735793,74.587166 91.190231,77.0572382 Z" id="Path" fill="#D9EAEA"></path>
                <path d="M104.8394,176.2 C105.344137,174.637773 104.626635,172.945386 103.143566,172.2 C103.190673,173.742029 102.201436,175.724638 104.8394,176.2 Z" id="Path" fill="#79BEC4"></path>
                <path d="M270.61734,223.492212 C270.137086,227.627292 272.30867,231.028394 274,234.532874 C272.809805,245.55286 265.000454,249.532874 255.447571,251.631427 C254.194734,251.910544 252.900136,252.013921 251.626419,252.2 L251,250.545968 C254.476623,247.982219 257.901044,245.377119 261.440309,242.865059 C264.440221,241.039435 266.075947,237.638172 265.616432,234.181392 C265.324103,231.359201 264.635043,228.547347 265.042215,225.70448 C265.2197,224.432943 264.729006,222.654859 266.754426,222.2 C267.57921,223.957409 269.28098,223.182081 270.61734,223.492212 Z" id="Path" fill="#233254"></path>
                <path d="M257.876019,211.2 L261,212.479021 C258.171118,217.520495 256.390348,223.361358 251.139618,226.548252 C250.539243,226.910641 249.898166,227.710029 249.318143,226.729446 C248.890758,226.004668 248.819528,224.70433 249.572539,224.405891 C255.311709,222.103654 254.904676,215.676573 257.713206,211.41317 C257.753909,211.338561 257.82514,211.263951 257.876019,211.2 Z" id="Path" fill="#EBB895"></path>
                <path d="M247.80505,252.686165 C247.80505,253.621952 247.43406,254.498637 248.501789,255.33592 C248.885863,255.695017 249.066834,256.248465 248.977576,256.790982 C248.888319,257.333499 248.542146,257.784167 248.067458,257.975826 C246.80971,258.724456 246.74637,257.414353 246.493011,256.734676 C245.922952,255.198015 245.488622,253.592401 245,252.016338 C245.469747,251.4019 246.202176,251.102432 246.927341,251.228306 C246.942058,251.856209 247.282044,252.420919 247.80505,252.686165 L247.80505,252.686165 Z" id="Path" fill="#184060"></path>
                <path d="M249.465201,254.2 C248.601172,253.863033 248.031854,253.119411 248,252.286207 L251.120879,251.2 L252,253.268966 C251.954414,253.476097 251.875469,253.676404 251.765568,253.863793 L249.465201,254.2 Z" id="Path" fill="#EBB895"></path>
                <path d="M69,40.5983792 C73.6957516,44.0050224 78.9590015,46.5775233 84.5526599,48.2 C84.2805407,45.4151457 84.3538035,42.5580914 83.6630393,39.8763799 C82.0617224,33.6878147 85.159695,32.6563872 90.2671634,33.6259291 C98.7028592,25.5807944 93.1662797,15.7822329 93.7628488,6.70567074 C83.8618957,5.92178582 73.6574251,4.43653019 69.2302547,16.7414605 C69.8268238,24.704081 70.9571651,32.6667015 69,40.5983792 Z" id="Path" fill="#9A7B2D"></path>
                <path d="M401,252.71048 C400.3745,252.929155 399.6255,252.929155 399,252.71048 C399.614306,252.463859 400.385694,252.463859 401,252.71048 L401,252.71048 Z" id="Path" fill="#EBB895"></path>
                <path d="M276,183.466993 C279.418994,182.911593 282.828412,183.359811 286.237829,183.58392 C286.830058,183.652815 287.418276,183.753644 288,183.885979 L286.754988,185.415765 L278.710295,190.2 C276.900239,188.319435 276.54589,185.854239 276,183.466993 Z" id="Path" fill="#3F878D"></path>
                <path d="M410.563339,273.516948 C408.411424,274.664127 406.25951,274.156526 404.107596,273.516948 C404.128993,273.344544 404.091285,273.170206 404,273.019499 C404,271.131222 404.204432,269.232794 404.096836,267.354669 C404,265.65928 404.710132,265.070463 406.410144,265.253199 C407.074721,265.330512 407.746847,265.330512 408.411424,265.253199 C410.627896,264.968943 411.262711,265.821713 410.907645,267.86227 C410.681691,269.739669 410.566744,271.627486 410.563339,273.516948 Z" id="Path" fill="#F9D058"></path>
                <path d="M403.617285,271.455 C403.702125,271.60345 403.737172,271.775177 403.717285,271.945 C403.567899,271.936422 403.420129,271.909555 403.277285,271.865 L403.617285,271.455 Z" id="Path" fill="#D9EAEA"></path>
                <path d="M404,277.979782 C403.73612,283.61168 403.31098,289.254124 403.267,294.854382 C403.267,297.11136 401.713042,297.132453 399.367443,297.195733 C396.787285,297.259013 395.966325,296.626215 396.024965,294.780556 C396.186225,290.17168 396.318165,285.541712 396.024965,280.943383 C395.819725,278.169621 396.831265,276.840746 400.877422,277.283705 L404,277.979782 Z" id="Path" fill="#79BEC4"></path>
                <path d="M408.559566,296.118535 C404.75698,296.554789 403.851603,295.224746 404.018749,292.468896 C404.325185,287.393451 404.116251,282.296726 404.116251,277.2 C406.902028,277.327684 409.395299,278.317236 412,278.945017 C411.79571,282.95288 411.591419,286.964291 411.387129,290.979248 C410.523538,292.043282 408.921717,292.405054 407.514899,293.181799 C408.294917,294.022387 409.353512,293.554212 410.147458,293.745738 L410.147458,293.745738 C410.113577,294.679107 409.53013,295.550956 408.559566,296.118535 L408.559566,296.118535 Z" id="Path" fill="#F9D058"></path>
                <path d="M409.39,292.805 L409.61,292.585 C409.61,292.585 409.61,292.695 409.61,292.725 C409.554796,292.763762 409.494132,292.794094 409.43,292.815 L409.39,292.805 Z" id="Path" fill="#F9D058"></path>
                <path d="M126.461529,133.2 C135.133421,132.226609 143.635275,131.114163 143.987495,119.943348 C144.169678,114.508584 142.384288,112.457511 137.113138,115.864378 C132.76006,118.478553 128.984831,121.879722 126,125.876395 C126.145746,128.317597 126.299589,130.758798 126.461529,133.2 Z" id="Path" fill="#9A7B2D"></path>
                <path d="M93.1026124,135.2 L97,133.3472 C89.2485291,132.6752 81.475406,134.048 73.6698047,132.08 C66.3622029,130.2464 58.6648623,129.6512 51,129.2 C62.5947282,133.8272 74.9364556,134.9024 87.4405743,135.2 L93.1026124,135.2 Z" id="Path" fill="#79BEC4"></path>
                <path d="M45.135,127.465 C45.135,127.655 45.135,127.935 45.205,128.005 C45.4127745,128.099961 45.6368057,128.154271 45.865,128.165 L45.765,127.235 L45.135,127.465 Z" id="Path" fill="#79BEC4"></path>
                <path d="M179.979999,125.2 C172.539777,127.638149 168.889668,132.125163 167.359622,138.517622 C165.939579,144.490063 168.899668,148.669747 173.169796,152.204039 C174.599838,153.392381 175.99988,154.754876 177.99994,153.966063 C180,153.17725 180,151.04643 180,149.212696 C180,141.560186 179.979999,133.866698 179.979999,125.2 Z" id="Path" fill="#F2B754"></path>
                <path d="M199.021603,98.2 C205.91903,95.9114964 209.734834,91.7159064 210.855424,85.6029216 C211.705527,80.9640629 208.681865,77.2942103 205.059267,74.8407695 C201.890701,72.6965859 198.90568,71.7481971 199.002283,77.809639 C199.089225,84.3349669 199.021603,90.8087519 199.021603,98.2 Z" id="Path" fill="#F2B754"></path>
                <path d="M137.797807,117.024381 C133.983394,119.37108 130.675324,122.424249 128.059847,126.011991 C115.650598,124.077158 103.220065,122.235946 91.1939496,118.470304 C91.3642309,110.866204 90.2893303,102.991643 91.9070024,95.6996128 C103.518057,43.2926943 153.389187,7.78955561 207.602489,17.9318235 C260.24069,27.7724239 296.946948,73.178577 288.890515,129.548782 C281.015006,184.68111 224.630617,221.557355 169.065707,210.114797 C131.550613,202.385868 99.2823104,170.929235 93.2373249,136.185466 L97.0686537,134.177817 C107.551595,133.938563 118.119677,135.446901 128.464265,132.555054 C136.063067,131.681259 143.512873,130.682635 143.821508,120.654793 C143.981146,115.807309 142.416687,113.966097 137.797807,117.024381 Z" id="Path" fill="#79BEC4"></path>
                <path d="M158.021169,109.3991 L158.021169,99.108782 L162.720766,99.108782 L162.720766,69.028612 C162.720755,67.5039816 164.008042,66.2664561 165.599798,66.2608714 L172.532762,66.2608714 C174.124518,66.2664561 175.411805,67.5039816 175.411794,69.028612 L175.411794,96.3410414 C175.411784,97.8656719 176.69907,99.1031973 178.290827,99.108782 L185.700101,99.108782 C186.834404,99.1075021 187.862205,98.4684027 188.325101,97.4765247 L202.30746,67.8322992 C202.770355,66.8404213 203.798156,66.2013219 204.93246,66.2000208 L213.400202,66.2000208 C214.179541,66.1971272 214.927067,66.4958596 215.473143,67.0284478 C216.019218,67.5610359 216.317538,68.2823176 216.300403,69.028612 L216.300403,99.108782 L221,99.108782 L221,109.3991 L216.300403,109.3991 L216.300403,118.422137 L221,118.422137 L221,128.661763 L216.300403,128.661763 L216.300403,151.432259 C216.300414,152.95689 215.013127,154.194415 213.421371,154.2 L206.488407,154.2 C204.896651,154.194415 203.609364,152.95689 203.609375,151.432259 L203.609375,131.388951 C203.609386,129.864321 202.322099,128.626795 200.730343,128.62121 L190.389113,128.62121 C189.257291,128.620696 188.230157,129.255413 187.764113,130.243329 L177.179435,152.547466 C176.713391,153.535383 175.686258,154.1701 174.554435,154.169585 L165.578629,154.169585 C163.986873,154.164001 162.699586,152.926475 162.699597,151.401845 L162.699597,128.661763 L158,128.661763 L158,118.422137 L162.699597,118.422137 L162.699597,109.3991 L158.021169,109.3991 Z M203.62069,96.9642412 L202.896552,99.1105821 L203.62069,99.1105821 L203.62069,96.9642412 Z M203.62069,115.55703 L203.62069,111.976584 C203.62069,110.406781 202.317431,109.13259 200.706017,109.12684 L199.484461,109.12684 C198.33866,109.126311 197.298841,109.779833 196.827041,110.797019 L195.1983,114.387905 C194.782118,115.270105 194.855633,116.298023 195.393371,117.115479 C195.931109,117.932936 196.859073,118.427443 197.85572,118.427651 L200.748878,118.427651 C202.351893,118.399089 203.63262,117.118856 203.62069,115.55703 L203.62069,115.55703 Z M175.37931,118.427651 L178.496712,118.427651 L180.9119,113.178886 C181.320298,112.292713 181.244828,111.262585 180.711503,110.443575 C180.178179,109.624565 179.259935,109.128678 178.27328,109.12684 L178.27328,109.12684 C176.673265,109.132623 175.37931,110.414004 175.37931,111.992665 L175.37931,118.427651 Z" id="Shape" fill="#FFFFFF" transform="translate(189.500000, 110.200000) scale(1, -1) translate(-189.500000, -110.200000) "></path>
                <path d="M68,0.981623663 L95,0.2 L94.4224037,6.9967275 L93.7607935,7.20062933 C83.8471412,6.36236627 73.6184364,4.73115167 69.1656943,18.2 L68,0.981623663 Z" id="Path" fill="#233254"></path>
            </g>
        </g>
    </g>
</svg>