<svg xmlns="http://www.w3.org/2000/svg" viewBox="0 0 208.91 208.94"><defs><style>.cls-1{fill:#00a79d;}</style></defs><title>wheelAsset 1</title><g id="Layer_2" data-name="Layer 2"><g id="Layer_1-2" data-name="Layer 1"><path class="cls-1" d="M145.78,177.67a79.24,79.24,0,0,1-18.15,7.56c-.64.17-.7.54-.7,1.07,0,4.62,0,9.23,0,13.85a8.41,8.41,0,0,1-8.75,8.77l-27.39,0A8.59,8.59,0,0,1,81.91,200c0-4.42,0-8.83,0-13.25,0-.39,0-.79,0-1.21l-5.13-1.73a70.71,70.71,0,0,1-12.69-5.62,1.24,1.24,0,0,0-1.82.27c-3.25,3.31-6.56,6.57-9.84,9.86a8.62,8.62,0,0,1-12-.11c-2.8-2.88-5.67-5.69-8.51-8.53-3.82-3.82-7.67-7.6-11.45-11.45a8.59,8.59,0,0,1,.15-11.8q5.08-5,10.15-10.09a.78.78,0,0,0,.16-1.11A85.58,85.58,0,0,1,24,129.14c-.22-.68-.26-1.67-.72-2S21.8,127,21,127c-4.11,0-8.23,0-12.34,0A8.62,8.62,0,0,1,.1,120,6.75,6.75,0,0,1,0,118.7q0-14.19,0-28.38A8.37,8.37,0,0,1,8.39,82c4.71,0,9.43,0,14.14,0a1,1,0,0,0,1.21-.91,74.9,74.9,0,0,1,7-16.91,1.28,1.28,0,0,0-.23-1.9c-3.36-3.25-6.65-6.57-9.93-9.9a8.44,8.44,0,0,1,0-11.77c3-3.1,6.1-6.1,9.14-9.16,3.3-3.31,6.63-6.6,9.88-10C42,19,44.81,17.75,48.3,18.44a9.54,9.54,0,0,1,5,3c3.09,3.15,6.23,6.25,9.33,9.38A.78.78,0,0,0,63.7,31a77.06,77.06,0,0,1,17.53-7.26c.62-.17.72-.49.72-1.05q0-7,0-14A8.37,8.37,0,0,1,90.57.05c9.2,0,18.4.07,27.59-.05A8.71,8.71,0,0,1,127,8.81c0,4.58,0,9.16,0,13.75,0,.75.28,1,.94,1.21a79.43,79.43,0,0,1,16.91,7,1.22,1.22,0,0,0,1.81-.27c3.28-3.38,6.62-6.69,10-10a8.63,8.63,0,0,1,12.08.44c2.9,3.06,6,6,8.94,8.94,3.54,3.53,7,7.1,10.61,10.61a8.61,8.61,0,0,1,0,12.08c-3.31,3.3-6.6,6.62-9.93,9.9a1,1,0,0,0-.23,1.43,79.34,79.34,0,0,1,7.16,17.36c.18.61.51.71,1.07.71q6.82,0,13.65,0c3.33,0,6.07,1.27,7.73,4.24a8.55,8.55,0,0,1,1.18,3.89c.09,9.59.07,19.18,0,28.78a8.35,8.35,0,0,1-8.3,8.12q-7.07,0-14.14,0c-.74,0-1.09.18-1.29.94a72.58,72.58,0,0,1-6.89,16.72,1.51,1.51,0,0,0,.31,2.22c3.3,3.17,6.49,6.45,9.74,9.68a8.48,8.48,0,0,1,0,11.78c-2.39,2.5-4.87,4.9-7.32,7.34-4.19,4.19-8.35,8.41-12.58,12.56a8.41,8.41,0,0,1-12.18-.14q-4.88-4.9-9.78-9.77C146.26,178.08,146,177.9,145.78,177.67ZM104.67,45.48a59,59,0,1,0,58.7,55.76A59,59,0,0,0,104.67,45.48Z"/></g></g></svg>